<svg width="1440" height="84" viewBox="0 0 1440 84" fill="none" xmlns="http://www.w3.org/2000/svg">
<g clip-path="url(#clip0_68_4)">
<mask id="mask0_68_4" style="mask-type:luminance" maskUnits="userSpaceOnUse" x="0" y="0" width="1440" height="84">
<path d="M1440 0H0V84H1440V0Z" fill="white"/>
</mask>
<g mask="url(#mask0_68_4)">
<path d="M1440 0H0V84H1440V0Z" fill="white"/>
<path d="M261.5 136.64C720.172 136.64 1092 101.936 1092 59.1267C1092 16.3172 720.172 -18.3867 261.5 -18.3867C-197.172 -18.3867 -569 16.3172 -569 59.1267C-569 101.936 -197.172 136.64 261.5 136.64Z" fill="url(#paint0_radial_68_4)"/>
<path d="M24.5 72.8C614.064 72.8 1092 28.1926 1092 -26.8333C1092 -81.8593 614.064 -126.467 24.5 -126.467C-565.064 -126.467 -1043 -81.8593 -1043 -26.8333C-1043 28.1926 -565.064 72.8 24.5 72.8Z" fill="url(#paint1_radial_68_4)"/>
<path d="M1365.5 118.907C1820.86 118.907 2190 84.4535 2190 41.9533C2190 -0.546818 1820.86 -35 1365.5 -35C910.141 -35 541 -0.546818 541 41.9533C541 84.4535 910.141 118.907 1365.5 118.907Z" fill="url(#paint2_radial_68_4)"/>
<path d="M655.5 153.533C1245.06 153.533 1723 108.926 1723 53.9C1723 -1.12597 1245.06 -45.7333 655.5 -45.7333C65.936 -45.7333 -412 -1.12597 -412 53.9C-412 108.926 65.936 153.533 655.5 153.533Z" fill="url(#paint3_radial_68_4)"/>
<path opacity="0.45" d="M-0.5 178.36C589.064 178.36 1067 133.753 1067 78.7267C1067 23.7007 589.064 -20.9067 -0.5 -20.9067C-590.064 -20.9067 -1068 23.7007 -1068 78.7267C-1068 133.753 -590.064 178.36 -0.5 178.36Z" fill="url(#paint4_radial_68_4)"/>
<path d="M1174.5 153.533C1571.32 153.533 1893 123.51 1893 86.4733C1893 49.4371 1571.32 19.4133 1174.5 19.4133C777.683 19.4133 456 49.4371 456 86.4733C456 123.51 777.683 153.533 1174.5 153.533Z" fill="url(#paint5_radial_68_4)"/>
<path d="M409.5 83.8933C915.117 83.8933 1325 45.6376 1325 -1.55333C1325 -48.7442 915.117 -87 409.5 -87C-96.1167 -87 -506 -48.7442 -506 -1.55333C-506 45.6376 -96.1167 83.8933 409.5 83.8933Z" fill="url(#paint6_radial_68_4)"/>
<path opacity="0.66" d="M1440 97.3467C1885.14 97.3467 2246 73.9252 2246 45.0333C2246 16.1415 1885.14 -7.28 1440 -7.28C994.858 -7.28 634 16.1415 634 45.0333C634 73.9252 994.858 97.3467 1440 97.3467Z" fill="url(#paint7_radial_68_4)"/>
<path d="M938.5 69.6C1348.57 69.6 1681 38.5733 1681 0.299995C1681 -37.9733 1348.57 -69 938.5 -69C528.429 -69 196 -37.9733 196 0.299995C196 38.5733 528.429 69.6 938.5 69.6Z" fill="url(#paint8_radial_68_4)"/>
</g>
</g>
<defs>
<radialGradient id="paint0_radial_68_4" cx="0" cy="0" r="1" gradientUnits="userSpaceOnUse" gradientTransform="translate(261.5 59.1267) rotate(90) scale(77.5133 830.5)">
<stop stop-color="#C68467"/>
<stop offset="1" stop-color="#C68467" stop-opacity="0"/>
</radialGradient>
<radialGradient id="paint1_radial_68_4" cx="0" cy="0" r="1" gradientUnits="userSpaceOnUse" gradientTransform="translate(24.5 -26.8333) rotate(90) scale(99.6333 1067.5)">
<stop stop-color="#6D8AB9"/>
<stop offset="1" stop-color="#6D8AB9" stop-opacity="0"/>
</radialGradient>
<radialGradient id="paint2_radial_68_4" cx="0" cy="0" r="1" gradientUnits="userSpaceOnUse" gradientTransform="translate(1365.5 41.9533) rotate(90) scale(76.9533 824.5)">
<stop stop-color="#A3CD41"/>
<stop offset="1" stop-color="#A3CD41" stop-opacity="0"/>
</radialGradient>
<radialGradient id="paint3_radial_68_4" cx="0" cy="0" r="1" gradientUnits="userSpaceOnUse" gradientTransform="translate(655.5 53.9) rotate(90) scale(99.6333 1067.5)">
<stop stop-color="#F15E2F"/>
<stop offset="1" stop-color="#F15E2F" stop-opacity="0"/>
</radialGradient>
<radialGradient id="paint4_radial_68_4" cx="0" cy="0" r="1" gradientUnits="userSpaceOnUse" gradientTransform="translate(-0.5 78.7267) rotate(90) scale(99.6333 1067.5)">
<stop stop-color="#F15E2F"/>
<stop offset="1" stop-color="#F15E2F" stop-opacity="0"/>
</radialGradient>
<radialGradient id="paint5_radial_68_4" cx="0" cy="0" r="1" gradientUnits="userSpaceOnUse" gradientTransform="translate(1174.5 86.4733) rotate(90) scale(67.06 718.5)">
<stop stop-color="#E3282A"/>
<stop offset="1" stop-color="#E3282A" stop-opacity="0"/>
</radialGradient>
<radialGradient id="paint6_radial_68_4" cx="0" cy="0" r="1" gradientUnits="userSpaceOnUse" gradientTransform="translate(409.5 -1.55333) rotate(90) scale(85.4467 915.5)">
<stop stop-color="#149DD9"/>
<stop offset="1" stop-color="#149DD9" stop-opacity="0"/>
</radialGradient>
<radialGradient id="paint7_radial_68_4" cx="0" cy="0" r="1" gradientUnits="userSpaceOnUse" gradientTransform="translate(1440 45.0333) rotate(90) scale(52.3133 806)">
<stop stop-color="#DDFF00"/>
<stop offset="1" stop-color="#B6CA33" stop-opacity="0"/>
</radialGradient>
<radialGradient id="paint8_radial_68_4" cx="0" cy="0" r="1" gradientUnits="userSpaceOnUse" gradientTransform="translate(938.5 0.299995) rotate(90) scale(69.3 742.5)">
<stop stop-color="#6AC184"/>
<stop offset="1" stop-color="#6AC184" stop-opacity="0"/>
</radialGradient>
<clipPath id="clip0_68_4">
<rect width="1440" height="84" fill="white"/>
</clipPath>
</defs>
</svg>
