<svg width="259" height="83" viewBox="0 0 259 83" fill="none" xmlns="http://www.w3.org/2000/svg">
<path fill-rule="evenodd" clip-rule="evenodd" d="M47.4797 70.0484C47.4797 70.1161 47.4765 70.1806 47.4729 70.2489C47.3656 72.2666 45.6047 73.251 43.1276 73.251C40.7303 73.251 39.1464 71.8817 39.0177 70.2489C39.0136 70.2119 39.0104 70.176 39.0104 70.139H41.9276C41.9344 70.176 41.9437 70.2119 41.9541 70.2489V70.2458C42.0333 70.526 42.2031 70.7385 42.4303 70.8749C42.6771 71.0296 43.0005 71.1051 43.2959 71.1051C44.0579 71.1051 44.5625 70.8609 44.5625 70.4218C44.5625 70.3619 44.5511 70.303 44.5323 70.2489C44.1016 69.0926 39.2161 69.828 39.2161 66.4333C39.2161 64.4582 40.9213 63.465 43.2448 63.465C45.8265 63.465 47.0016 64.7796 47.2213 66.4088H44.3281C44.2781 66.0842 44.1099 65.8916 43.8907 65.776C43.6713 65.6572 43.3989 65.6077 43.1021 65.6077C42.4303 65.6077 42.1355 65.8005 42.1355 66.1364C42.1355 67.5296 47.4797 66.6656 47.4797 70.0484ZM26.7251 50.4618L25.7432 47.1317L24.8011 50.4618H26.7251ZM27.3193 44.327L30.6505 53.6249H27.6167L27.2557 52.3984H24.2213L23.8724 53.6249H20.8885L24.2213 44.327H27.3193ZM52.0396 57.6552C53.6511 59.5874 51.5303 60.4072 50.7021 60.2952C50.7021 60.2952 50.2453 60.2916 49.5047 60.29C49.188 60.7541 48.6536 61.0582 48.0469 61.0582C47.4432 61.0582 46.9093 60.7541 46.5912 60.2916C46.0281 60.29 45.4396 60.29 44.8245 60.29C44.5088 60.7541 43.9719 61.0582 43.3672 61.0582C42.7625 61.0582 42.226 60.7394 41.9079 60.2776C41.2765 60.2776 40.6636 60.2692 40.0636 60.2692C39.7479 60.7333 39.2115 61.039 38.6068 61.039C38.0016 61.039 37.486 60.7437 37.1688 60.2796C36.3484 60.2838 35.6907 60.29 35.2855 60.2952C34.1959 60.3176 32.4979 59.1233 34.0251 57.3968L37.1765 52.7301C37.1765 52.7301 36.9573 52.1468 36.9573 51.803C36.9573 50.6442 37.8995 49.7046 39.0625 49.7046C39.1276 49.7046 39.2588 49.715 39.2588 49.715L41.3803 46.5041L42.6719 48.1129L40.8932 50.7666C40.8932 50.7666 41.1667 51.426 41.1667 51.803C41.1667 52.9618 40.224 53.9 39.0625 53.9C38.9604 53.9 38.8255 53.8681 38.8255 53.8681C37.8063 55.3473 36.6333 57.0686 36.2552 57.5609C35.6104 58.5276 36.576 58.3629 36.576 58.3629C36.576 58.3629 36.786 58.3374 37.126 58.3374C37.438 57.8525 37.9849 57.5312 38.6068 57.5312C39.236 57.5312 39.7609 57.8713 40.0729 58.3629C40.6464 58.3629 41.2568 58.3577 41.8855 58.3577C42.1989 57.8724 42.7453 57.5505 43.3672 57.5505C43.9948 57.5505 44.5235 57.8713 44.8339 58.3629C45.4375 58.3629 46.0213 58.3577 46.5645 58.3577C46.8797 57.8724 47.4265 57.5505 48.0469 57.5505C48.6724 57.5505 49.2219 57.8713 49.5339 58.3629H49.7339C50.7021 58.3629 49.7177 57.2828 49.7177 57.2828L47.4901 53.9776C47.4901 53.9776 47.3021 53.9957 47.2052 53.9957C46.0421 53.9957 45.1005 53.0546 45.1005 51.9C45.1005 51.5218 45.3625 50.8681 45.3625 50.8681C43.6948 48.2864 41.0891 44.4072 41.0891 44.2489H37.5421V42.3473C37.5421 42.3473 41.0891 42.3166 41.7031 42.3473C42.2031 42.3733 42.3505 42.6676 42.3505 42.6676L46.9943 49.8109C46.9943 49.8109 47.1349 49.8005 47.2052 49.8005C48.3688 49.8005 49.3104 50.7394 49.3104 51.9C49.3104 52.2848 49.0229 52.9598 49.0229 52.9598L49.036 52.9306C49.0407 52.9208 51.714 57.0166 52.0396 57.6552ZM62.4265 49.8426H65.3568C65.0864 52.2437 63.3688 53.6885 60.9183 53.6885C57.8437 53.6885 55.9849 51.8046 55.9849 48.7828C55.9849 45.776 58.024 43.902 60.6188 43.902C63.4588 43.902 65.0479 45.3082 65.2937 47.6994H62.4016C62.3115 46.7333 61.7041 46.1744 60.75 46.1744C59.6771 46.1744 59.0317 47.0926 59.0317 48.8864C59.0317 50.191 59.3145 51.4156 60.8645 51.4156C61.8469 51.4156 62.3115 50.7333 62.4265 49.8426ZM44.6063 44.5686L43.6375 42.9905C43.6375 42.9905 43.5803 42.8713 43.9323 42.579C44.2833 42.2864 44.6063 42.3473 44.6063 42.3473H49.0885V44.2489C49.0885 44.2489 46.2177 44.2489 45.5713 44.2489C45.25 44.2489 45.25 44.2489 45.25 44.2489L44.6063 44.5686ZM0 38.802H86.6615L42.9932 82.1145L0 38.802Z" fill="white"/>
<path d="M104.359 66.928C99.8586 66.928 97.6294 64.1414 97.6294 59.5529C97.6294 55.0737 99.7242 51.5769 104.871 51.5769C106.051 51.5769 107.344 51.755 108.458 52.0893L108.19 53.4034C107.053 53.0024 105.784 52.7794 104.559 52.7794C100.704 52.7794 99.1669 55.7878 99.1669 59.3081C99.1669 63.3393 100.949 65.6794 104.781 65.6794C106.007 65.6794 107.41 65.3237 108.391 64.8332L108.68 66.0581C107.5 66.5717 105.985 66.928 104.359 66.928Z" fill="white"/>
<path d="M118.194 66.7717V59.5972C118.194 57.7488 117.681 56.656 115.944 56.656C113.849 56.656 112.379 58.6832 112.379 61.4904V66.7717H110.975V50.506H112.379V56.0999C112.379 56.8565 112.335 57.7488 112.201 58.3056L112.245 58.3269C112.891 56.6117 114.318 55.5191 116.255 55.5191C118.818 55.5191 119.597 57.1024 119.597 59.0623V66.7717H118.194Z" fill="white"/>
<path d="M126.57 56.5895C124.922 56.5895 123.741 57.7692 123.452 59.7099H129.422C129.468 57.8375 128.375 56.5895 126.57 56.5895ZM130.871 60.7776H123.362C123.229 64.2984 124.587 65.7457 127.172 65.7457C128.242 65.7457 129.356 65.5244 130.292 65.1L130.558 66.2812C129.512 66.7047 128.242 66.9495 126.86 66.9495C123.63 66.9495 121.87 65.1676 121.87 61.2681C121.87 57.9697 123.653 55.5192 126.66 55.5192C129.668 55.5192 130.915 57.5927 130.915 59.9749C130.915 60.1317 130.915 60.4 130.871 60.7776Z" fill="white"/>
<path d="M147.403 66.7717V59.5972C147.403 57.8149 146.977 56.656 145.263 56.656C143.436 56.656 141.743 58.4832 141.743 61.5347V66.7717H140.339V59.5737C140.339 57.9936 140.028 56.656 138.2 56.656C136.261 56.656 134.701 58.6613 134.701 61.5347V66.7717H133.298V55.6993H134.724C134.724 56.4775 134.657 57.5685 134.524 58.2827L134.569 58.3056C135.193 56.6117 136.663 55.5191 138.533 55.5191C141.164 55.5191 141.632 57.4581 141.632 58.2603C142.011 57.2133 143.213 55.5191 145.531 55.5191C147.603 55.5191 148.807 56.5893 148.807 59.0841V66.7717H147.403Z" fill="white"/>
<path d="M152.192 66.7717V55.6993H153.595V66.7717H152.192ZM152.906 53.1128C152.348 53.1128 151.903 52.6675 151.903 52.1108C151.903 51.5545 152.348 51.1076 152.906 51.1076C153.463 51.1076 153.908 51.5327 153.908 52.1108C153.908 52.6456 153.463 53.1128 152.906 53.1128Z" fill="white"/>
<path d="M158.632 66.9495C157.784 66.9495 156.849 66.8609 156.157 66.6604L156.359 65.3239C157.072 65.5895 158.031 65.7457 158.876 65.7457C160.525 65.7457 161.728 64.9672 161.728 63.7197C161.728 60.8448 156.113 62.6719 156.113 58.6833C156.113 56.8567 157.561 55.5192 160.303 55.5192C161.015 55.5192 161.863 55.6093 162.531 55.764L162.352 56.9672C161.661 56.7667 160.881 56.6339 160.101 56.6339C158.385 56.6339 157.539 57.3681 157.539 58.5276C157.539 61.402 163.176 59.6416 163.176 63.5192C163.176 65.4124 161.483 66.9495 158.632 66.9495Z" fill="white"/>
<path d="M168.88 66.928C166.718 66.928 166.094 65.9461 166.094 63.7196V56.8122H163.577V55.6993H166.094V51.9556L167.498 51.5769V55.6993H170.908V56.8122H167.498V63.0284C167.498 65.1441 167.877 65.6794 169.258 65.6794C169.837 65.6794 170.372 65.6128 170.796 65.5008L170.996 66.7045C170.394 66.8384 169.57 66.928 168.88 66.928Z" fill="white"/>
<path d="M178.148 56.9019C175.629 56.5008 174.426 58.506 174.426 62.3608V66.7717H173.022V55.6993H174.449C174.449 56.4775 174.361 57.6144 174.161 58.5947L174.205 58.6171C174.626 56.9671 175.785 55.23 178.216 55.5431L178.148 56.9019Z" fill="white"/>
<path d="M183.447 67.9071C182.156 71.2941 180.908 72.5415 178.457 72.5415C178.101 72.5415 177.656 72.4748 177.343 72.4071L177.5 71.116C177.833 71.2275 178.368 71.2941 178.769 71.2941C180.083 71.2941 181.041 70.6264 182 68.13L182.533 66.7718L178.257 55.6994H179.905L182.4 62.5166C182.78 63.5399 183.003 64.2759 183.247 65.078H183.271C183.447 64.4103 183.916 63.0504 184.384 61.715L186.523 55.6994H188.059L183.447 67.9071Z" fill="white"/>
<path d="M199.891 51.7993C199.311 51.6212 198.664 51.5545 198.085 51.5545C196.257 51.5545 195.479 52.6232 195.479 54.8967V55.6993H198.888V56.8123H195.479V66.7717H194.075V56.8123H191.535V55.6993H194.075V54.9409C194.075 51.8436 195.635 50.3956 198.197 50.3956C198.843 50.3956 199.421 50.4617 200.023 50.5961L199.891 51.7993Z" fill="white"/>
<path d="M203.788 56.6561C201.961 56.6561 200.224 58.0599 200.224 61.1572C200.224 64.0973 201.515 65.79 203.811 65.79C205.637 65.79 207.331 64.3864 207.331 61.1339C207.331 58.35 206.127 56.6561 203.788 56.6561ZM203.565 66.9495C200.624 66.9495 198.753 65.1443 198.753 61.2681C198.753 58.1708 200.624 55.5192 203.945 55.5192C206.528 55.5192 208.779 56.9463 208.779 61.0676C208.779 64.2984 206.819 66.9495 203.565 66.9495Z" fill="white"/>
<path d="M216.176 56.9019C213.658 56.5008 212.454 58.506 212.454 62.3608V66.7717H211.052V55.6993H212.477C212.477 56.4775 212.388 57.6144 212.188 58.5947L212.232 58.6171C212.656 56.9671 213.814 55.23 216.242 55.5431L216.176 56.9019Z" fill="white"/>
<path d="M222.012 66.7717V51.7332H223.44V65.5893H229.187V66.7717H222.012Z" fill="white"/>
<path d="M230.591 66.7717V55.6993H231.995V66.7717H230.591ZM231.304 53.1128C230.747 53.1128 230.301 52.6675 230.301 52.1108C230.301 51.5545 230.747 51.1076 231.304 51.1076C231.861 51.1076 232.307 51.5327 232.307 52.1108C232.307 52.6456 231.861 53.1128 231.304 53.1128Z" fill="white"/>
<path d="M241.729 51.7993C241.15 51.6212 240.504 51.5545 239.926 51.5545C238.098 51.5545 237.32 52.6232 237.32 54.8967V55.6993H240.726V56.8123H237.32V66.7717H235.916V56.8123H233.375V55.6993H235.916V54.9409C235.916 51.8436 237.475 50.3956 240.037 50.3956C240.683 50.3956 241.263 50.4617 241.864 50.5961L241.729 51.7993Z" fill="white"/>
<path d="M245.318 56.5895C243.67 56.5895 242.488 57.7692 242.198 59.7099H248.17C248.214 57.8375 247.122 56.5895 245.318 56.5895ZM249.616 60.7776H242.11C241.976 64.2984 243.334 65.7457 245.919 65.7457C246.99 65.7457 248.103 65.5244 249.039 65.1L249.306 66.2812C248.258 66.7047 246.99 66.9495 245.607 66.9495C242.378 66.9495 240.616 65.1676 240.616 61.2681C240.616 57.9697 242.398 55.5192 245.406 55.5192C248.414 55.5192 249.662 57.5927 249.662 59.9749C249.662 60.1317 249.662 60.4 249.616 60.7776Z" fill="white"/>
<path d="M113.86 14.3572C113.25 12.6776 112.792 11.1505 112.384 9.67383H112.282C111.875 11.1505 111.417 12.6776 110.857 14.3066L106.275 27.0348H118.443L113.86 14.3572ZM122.516 38.7952L119.664 30.7509H105.052L102.202 38.7952H97.415L109.94 4.42956H115.133L127.759 38.7952H122.516Z" fill="white"/>
<path d="M145.531 39.2031C134.481 39.2031 129.899 32.1771 129.899 22.4526C129.899 11.9651 135.093 4.12446 146.701 4.12446C149.349 4.12446 152.148 4.4802 154.592 5.19326L153.829 9.46979C151.436 8.65579 148.789 8.14632 146.193 8.14632C138.352 8.14632 134.991 14.1542 134.991 21.6886C134.991 30.1406 138.657 35.0282 146.649 35.0282C149.144 35.0282 152.148 34.3151 154.185 33.2969L154.949 37.3698C152.353 38.4395 148.992 39.2031 145.531 39.2031Z" fill="white"/>
<path d="M167.677 39.2542C164.876 39.2542 162.28 38.8968 160.141 38.2864L160.701 33.8057C162.891 34.6719 165.385 35.1807 167.931 35.1807C171.903 35.1807 175.364 33.5515 175.364 29.326C175.364 21.5875 159.836 24.6416 159.836 13.6958C159.836 8.04429 164.113 3.97136 171.852 3.97136C173.837 3.97136 176.128 4.17495 178.061 4.63335L177.503 8.75722C175.669 8.19735 173.583 7.84108 171.597 7.84108C166.913 7.84108 164.673 9.92816 164.673 13.187C164.673 20.6198 180.405 17.9219 180.405 28.7151C180.405 34.875 175.364 39.2542 167.677 39.2542Z" fill="white"/>
<path fill-rule="evenodd" clip-rule="evenodd" d="M38.5085 34.966C36.4865 33.9404 36.9851 32.7702 36.9851 32.7702C36.9851 32.7702 36.0761 32.7098 35.9304 33.677C35.6933 34.9967 35.8835 36.2655 35.9225 36.504C35.9007 36.4035 35.7939 36.1166 35.2845 35.6092C34.6413 34.966 34.0241 34.966 34.0241 34.966C34.0241 34.966 34.3471 35.6092 34.0241 36.253C33.7028 36.868 33.058 36.868 32.7351 37.5123C32.4137 38.1587 32.7351 38.1587 32.7351 38.1587H39.4761C39.4761 38.1587 39.5632 35.4926 38.5085 34.966ZM52.6361 36.5472C52.3147 35.6092 52.6361 34.6436 52.6361 34.6436C52.6361 34.6436 51.346 34.791 51.0241 35.6092C50.5256 36.8404 49.734 36.868 49.734 36.868C49.734 36.868 50.058 34.966 49.4111 34.3207C49.0881 33.677 48.4449 33.0327 48.4449 33.0327C48.4449 33.0327 48.5908 33.9404 48.1231 34.3207C47.2419 35.0243 47.1845 34.966 47.1845 34.966C47.1845 34.966 45.8939 34.3207 45.2496 33.0327C44.6064 32.0666 44.6064 31.0999 44.6064 31.0999C44.6064 31.0999 43.6376 31.0999 43.3157 32.0666C42.9928 33.0327 42.6715 33.677 42.6715 33.677C42.6715 33.677 41.3799 30.1327 40.4433 30.1327C40.4433 30.1327 40.7949 30.8666 40.4433 31.4223C39.946 32.2134 38.8616 32.7702 39.5075 34.0571C40.8548 36.7232 40.1507 38.1587 40.1507 38.1587H54.248C54.248 38.1587 52.6361 37.8363 52.6361 36.5472ZM59.6975 15.0811C59.6975 15.0811 77.9865 33.677 80.2428 35.6092C82.4695 37.5123 86.0163 36.868 86.0163 36.868C85.372 36.868 84.7261 36.253 84.7261 36.253C84.7261 36.253 64.5059 16.0191 58.0881 10.2494C51.9903 4.4811 47.6829 13.0024 47.6829 13.0024C47.6829 13.0024 49.0319 15.989 49.734 18.2727C50.6413 21.2035 50.4085 24.8338 50.4085 24.8338C57.7923 34.1456 64.5059 34.3207 64.5059 34.3207C63.8616 33.9988 63.2141 33.677 63.2141 33.677L53.9252 24.6852C53.9252 24.6852 53.6908 24.3951 53.9252 24.0431C54.1585 23.6904 54.5709 24.0431 54.5709 24.0431C54.5709 24.0431 61.2808 30.456 63.8616 33.0327C66.4397 35.9316 70.6012 35.9316 70.9225 35.9316C70.6012 35.9316 68.3444 33.9988 68.3444 33.9988L56.1819 22.1994C56.1819 22.1994 55.9189 21.7582 56.1532 21.4942C56.4173 21.1723 56.7975 21.4942 56.7975 21.4942C56.7975 21.4942 67.7288 32.3874 69.9564 34.6436C72.5345 36.868 76.0517 36.5472 76.0517 36.5472C75.7299 36.5472 74.148 35.6092 74.148 35.6092L57.7637 19.5618C57.7637 19.5618 57.4121 19.0634 57.7365 18.7426C58.058 18.4196 58.4095 18.5942 58.4095 18.5942C58.4095 18.5942 72.5345 33.0327 75.0856 35.2894C77.6647 37.5123 81.8252 37.1904 81.1829 36.868C80.5657 36.868 80.5657 36.5472 79.5985 36.253C78.6308 35.9316 59.0543 16.0191 59.0543 16.0191C59.0543 16.0191 58.9069 15.6675 59.0543 15.403C59.3184 14.9936 59.6975 15.0811 59.6975 15.0811ZM61.2808 36.253C60.6663 35.2894 59.9919 34.0571 59.9919 34.0571C59.9919 34.0571 60.0215 34.2623 59.846 35.141C59.7272 35.6978 59.0543 35.9316 59.0543 35.9316C59.0543 35.9316 58.6725 34.7008 58.0881 34.3207C56.6793 33.3838 57.1195 32.0666 57.1195 32.0666C57.1195 32.0666 56.4173 32.154 56.0361 33.0327C55.6543 33.9404 55.8304 34.3207 55.8304 34.3207C55.8304 34.3207 54.7455 33.356 54.5709 32.3874C54.3365 31.2754 54.9501 30.6614 54.9501 30.6614C54.9501 30.6614 53.6012 30.1327 53.2793 30.456C52.6361 30.778 51.9903 31.4223 51.9903 31.4223C51.9903 31.4223 52.6361 28.2295 51.6673 27.5863C51.0241 26.941 51.0241 26.941 51.0241 26.941C51.0241 26.941 51.2887 27.7035 50.058 28.2295C49.0319 28.6696 48.7975 30.3962 47.8277 30.778C47.8277 31.0999 46.9501 28.8732 46.8627 28.2295C46.6585 27.0311 47.0971 26.7639 47.0971 25.4784C47.0971 25.4784 45.5709 26.2087 44.6933 26.2972C44.1663 26.3566 43.3157 27.5863 43.3157 27.5863C43.3157 27.5863 44.0189 26.0342 42.9928 24.6852C42.5543 24.0999 42.3496 23.3988 42.3496 23.3988C42.3496 23.3988 41.7028 24.6852 41.0892 25.33C40.4433 25.9748 38.8329 26.941 38.5085 27.9103C37.8641 28.8732 37.8641 29.8108 37.8641 29.8108C37.8641 29.8108 37.2195 28.5524 36.898 28.2295C36.5761 27.9103 35.6673 27.6743 35.6673 27.6743C35.6673 27.6743 35.6376 28.6696 34.6413 29.8108C33.5553 31.041 34.3471 32.7098 34.3471 32.7098C34.3471 32.7098 32.3548 33.1483 32.0908 32.3874C31.9449 31.9483 32.4423 31.2754 32.4423 31.2754C32.4423 31.2754 31.446 31.4223 30.8028 32.0666C30.4799 32.7098 30.1559 33.677 29.834 34.3207C29.1897 35.2894 28.5439 36.253 28.222 36.253C27.6075 35.9316 27.3132 33.9707 27.3132 33.9707C27.3132 33.9707 24.0319 35.6092 26.2887 38.1587C26.8747 38.1587 31.446 38.1587 31.446 38.1587C31.446 38.1587 31.5647 37.1322 32.9121 36.1363C34.0241 35.3166 32.7351 33.677 32.7351 33.677C32.7351 33.677 34.9632 33.677 35.2845 34.3207C35.2845 34.3207 34.9632 33.356 35.6075 32.7098C36.2523 32.0666 36.5761 30.778 36.5761 30.778C36.5761 30.778 36.898 31.7442 37.2195 32.0666C37.5423 32.3874 38.5085 33.356 38.5085 33.356C38.5085 33.356 38.5371 32.0384 38.8329 31.7442C39.1247 31.4524 39.7975 30.778 39.7975 29.8108C39.7975 29.1972 39.7975 28.2295 39.7975 28.2295C39.7975 28.2295 42.6715 30.1327 42.6715 31.4223C42.6715 31.4223 42.9928 30.778 43.6376 30.1327C44.6064 29.8108 45.2496 29.518 45.2496 29.518C45.2496 29.518 44.6064 30.778 47.1845 33.677C47.1845 33.677 47.9747 32.8858 47.9747 31.9207C47.9747 31.5983 49.1767 32.0384 49.734 32.7098C50.3799 33.4707 50.3799 34.966 50.3799 34.966C50.3799 34.966 51.1116 33.9707 51.6673 33.677C52.2261 33.3838 53.2793 33.677 53.2793 33.677C53.2793 33.677 52.6361 35.2894 53.6012 36.5472C54.5709 37.5123 55.1845 38.1587 55.1845 38.1587H60.6663C60.6663 38.1587 61.9267 37.1904 61.2808 36.253ZM48.1231 3.51336C47.5059 1.28936 44.9277 1.61083 42.6715 1.61083C40.4433 1.61083 41.0892 -0.000107589 41.0892 -0.000107589C38.5085 2.25709 40.4433 4.15709 40.4433 4.15709C37.5423 8.99043 38.1856 10.2494 38.1856 10.2494C40.7679 12.8284 40.7679 16.0191 40.7679 16.0191H40.1204C40.1204 13.4707 38.5085 10.5707 35.6075 9.28376C32.0908 7.3795 28.5439 10.2494 28.5439 10.2494C28.5439 10.2494 3.51628 35.6092 2.87201 36.253C2.22721 36.868 1.58138 36.868 0.966797 37.1904C0.966797 37.1904 4.80534 37.8363 7.70794 35.2894C15.0647 27.2655 26.9616 15.7264 26.9616 15.7264C26.9616 15.7264 27.4017 15.5218 27.6075 15.7556C28.0465 16.254 27.6075 16.6634 27.6075 16.6634C27.6075 16.6634 8.32097 35.6092 7.70794 36.253C6.74024 36.868 5.77305 37.1904 5.77305 37.1904C9.28972 37.8363 12.1908 35.2894 12.1908 35.2894L28.5439 18.9175C28.5439 18.9175 28.9851 18.8592 29.1595 19.0942C29.4241 19.4451 29.1897 19.8852 29.1897 19.8852C29.1897 19.8852 14.1256 34.966 13.1585 35.6092C12.8366 35.9316 10.9017 36.868 10.9017 36.868C14.7403 37.5123 17.9641 34.3207 17.9641 34.3207L30.8028 21.4942C30.8028 21.4942 31.3288 21.466 31.446 21.6707C31.6507 22.0504 31.446 22.4603 31.446 22.4603C31.446 22.4603 19.2548 33.9988 18.9319 34.6436C17.9641 35.6092 16.3512 36.253 16.3512 36.253C16.3512 36.253 17.6428 36.253 20.5423 35.2894C23.4163 34.3207 33.5553 23.5139 33.5553 23.5139C33.5553 23.5139 34.0856 23.3988 34.2585 23.5732C34.5543 23.8675 34.3471 24.0431 34.3471 24.365L25.0293 33.0327L23.0944 34.6436C30.1559 33.0327 35.6075 26.2972 35.6075 26.2972C36.2523 26.2972 37.5423 27.9103 37.5423 27.9103C37.5423 27.9103 38.1856 25.9748 39.7975 25.0076C41.7028 24.0431 41.3799 22.1384 41.3799 22.1384C44.6064 23.0775 44.2835 25.6519 44.2835 25.6519C44.6064 24.6852 47.8277 24.365 47.8277 24.365V27.2655C47.5059 28.5524 48.1231 29.518 48.1231 29.518C52.3147 22.7546 47.1845 13.4707 46.2168 12.1822C45.2496 10.2494 45.2496 9.60602 45.5709 7.37949C46.2168 5.77016 49.734 6.09096 50.3799 6.41443C51.346 6.41443 51.6673 7.05709 51.6673 7.05709C51.9903 2.54723 48.1231 3.51336 48.1231 3.51336ZM46.2756 3.48416C46.2756 3.48416 46.1283 4.15709 45.3965 3.66176C45.1023 3.45602 44.898 2.86909 44.898 2.86909C44.898 2.86909 45.4851 2.84149 45.9824 2.92896C46.3209 2.98736 46.3017 3.24149 46.2756 3.48416Z" fill="white"/>
<path d="M254.39 51.2553H253.941V52.4854H254.218C254.858 52.4854 255.066 52.1391 255.066 51.8099C255.066 51.4282 254.893 51.2553 254.39 51.2553ZM255.102 54.7225L253.993 52.9542H253.941V54.7225H253.246V50.7006H254.46C255.413 50.7006 255.794 51.1157 255.794 51.7225C255.794 52.3995 255.38 52.8151 254.737 52.8839C254.825 52.9881 254.981 53.2135 255.136 53.4386L255.968 54.7225H255.102ZM254.426 49.8682C252.865 49.8682 251.601 51.1339 251.601 52.711C251.601 54.2719 252.865 55.6053 254.426 55.6053C256.002 55.6053 257.25 54.3395 257.25 52.763C257.25 51.2031 256.002 49.8682 254.426 49.8682ZM254.426 56.3865C252.362 56.3865 250.785 54.7745 250.785 52.7458C250.785 50.7354 252.414 49.0886 254.426 49.0886C256.489 49.0886 258.082 50.6834 258.082 52.7458C258.082 54.7225 256.401 56.3865 254.426 56.3865Z" fill="white"/>
</svg>
